<svg width="500" height="350" viewBox="0 0 500 350" fill="none" xmlns="http://www.w3.org/2000/svg">
<rect width="500" height="350" fill="white"/>
<circle cx="249.5" cy="174.5" r="133.5" fill="#D9D9D9"/>
<g clip-path="url(#clip0_18_2)">
<path d="M208 121H238C239.591 121 241.117 121.632 242.243 122.757C243.368 123.883 244 125.409 244 127V163C244 164.591 243.368 166.117 242.243 167.243C241.117 168.368 239.591 169 238 169H202C200.409 169 198.883 168.368 197.757 167.243C196.632 166.117 196 164.591 196 163V133C196 129.817 197.264 126.765 199.515 124.515C201.765 122.264 204.817 121 208 121Z" fill="white"/>
<path d="M262 121H292C295.183 121 298.235 122.264 300.485 124.515C302.736 126.765 304 129.817 304 133V145C304 146.591 303.368 148.117 302.243 149.243C301.117 150.368 299.591 151 298 151H262C260.409 151 258.883 150.368 257.757 149.243C256.632 148.117 256 146.591 256 145V127C256 125.409 256.632 123.883 257.757 122.757C258.883 121.632 260.409 121 262 121Z" fill="white"/>
<path d="M256 169C256 167.409 256.632 165.883 257.757 164.757C258.883 163.632 260.409 163 262 163H298C299.591 163 301.117 163.632 302.243 164.757C303.368 165.883 304 167.409 304 169V181C304 182.591 303.368 184.117 302.243 185.243C301.117 186.368 299.591 187 298 187H262C260.409 187 258.883 186.368 257.757 185.243C256.632 184.117 256 182.591 256 181V169Z" fill="white"/>
<path d="M262 199H298C299.591 199 301.117 199.632 302.243 200.757C303.368 201.883 304 203.409 304 205V217C304 220.183 302.736 223.235 300.485 225.485C298.235 227.736 295.183 229 292 229H262C260.409 229 258.883 228.368 257.757 227.243C256.632 226.117 256 224.591 256 223V205C256 203.409 256.632 201.883 257.757 200.757C258.883 199.632 260.409 199 262 199Z" fill="white"/>
<path d="M202 181H238C239.591 181 241.117 181.632 242.243 182.757C243.368 183.883 244 185.409 244 187V223C244 224.591 243.368 226.117 242.243 227.243C241.117 228.368 239.591 229 238 229H208C204.817 229 201.765 227.736 199.515 225.485C197.264 223.235 196 220.183 196 217V187C196 185.409 196.632 183.883 197.757 182.757C198.883 181.632 200.409 181 202 181Z" fill="white"/>
</g>
<defs>
<clipPath id="clip0_18_2">
<rect width="144" height="144" fill="white" transform="translate(178 103)"/>
</clipPath>
</defs>
</svg>
