<svg width="60" height="30" viewBox="0 0 60 30" fill="none" xmlns="http://www.w3.org/2000/svg"><rect width="60" height="30" fill="#4338CA"/><rect x="4" y="6" width="16" height="21" fill="white"/><rect x="5" y="20" width="14" height="1" fill="#4338CA"/><rect x="5" y="22" width="14" height="1" fill="#4338CA"/><rect x="5" y="24" width="14" height="1" fill="#4338CA"/><rect x="5" y="7" width="14" height="12" fill="#4338CA"/><rect x="22" y="6" width="16" height="21" fill="white"/><rect x="23" y="20" width="14" height="1" fill="#4338CA"/><rect x="23" y="22" width="14" height="1" fill="#4338CA"/><rect x="23" y="24" width="14" height="1" fill="#4338CA"/><rect x="23" y="7" width="14" height="12" fill="#4338CA"/><rect x="40" y="6" width="16" height="21" fill="white"/><rect x="41" y="20" width="14" height="1" fill="#4338CA"/><rect x="41" y="22" width="14" height="1" fill="#4338CA"/><rect x="41" y="24" width="14" height="1" fill="#4338CA"/><rect x="41" y="7" width="14" height="12" fill="#4338CA"/></svg>