<svg width="60" height="30" viewBox="0 0 60 30" fill="none" xmlns="http://www.w3.org/2000/svg"><rect width="60" height="30" fill="#4338CA"/><rect x="4" y="6" width="12" height="21" fill="white"/><rect x="4.75" y="20" width="10.5" height="1" fill="#4338CA"/><rect x="4.75" y="22" width="10.5" height="1" fill="#4338CA"/><rect x="4.75" y="24" width="10.5" height="1" fill="#4338CA"/><rect x="4.75" y="7" width="10.5" height="12" fill="#4338CA"/><rect x="17.5" y="6" width="12" height="21" fill="white"/><rect x="18.25" y="20" width="10.5" height="1" fill="#4338CA"/><rect x="18.25" y="22" width="10.5" height="1" fill="#4338CA"/><rect x="18.25" y="24" width="10.5" height="1" fill="#4338CA"/><rect x="18.25" y="7" width="10.5" height="12" fill="#4338CA"/><rect x="31" y="6" width="12" height="21" fill="white"/><rect x="31.75" y="20" width="10.5" height="1" fill="#4338CA"/><rect x="31.75" y="22" width="10.5" height="1" fill="#4338CA"/><rect x="31.75" y="24" width="10.5" height="1" fill="#4338CA"/><rect x="31.75" y="7" width="10.5" height="12" fill="#4338CA"/><rect x="45" y="6" width="12" height="21" fill="white"/><rect x="45.75" y="20" width="10.5" height="1" fill="#4338CA"/><rect x="45.75" y="22" width="10.5" height="1" fill="#4338CA"/><rect x="45.75" y="24" width="10.5" height="1" fill="#4338CA"/><rect x="45.75" y="7" width="10.5" height="12" fill="#4338CA"/></svg>